<svg xmlns="http://www.w3.org/2000/svg" xmlns:xlink="http://www.w3.org/1999/xlink" version="1.1" x="0" y="0" viewBox="0 0 220.0 220.0" width="220.0" height="220.0" text-rendering="optimizeLegibility"><rect x="3" y="3" width="220" height="220" stroke-width="6" fill="none" />

<g transform="translate(0, 152)">
  <g transform="translate(0, 20)">
    <text text-anchor="middle" font-family="sans-serif" paint-order="stroke fill" x="110" y="30" fill="#ffd600" font-weight="bold" font-size="20px">
      <tspan dy="0.22em">SHARE</tspan>
    </text>
  </g>
</g><g transform="translate(30.0, 18.0)"><g fill="#ffd600"><rect x="44.246893939393935" y="0.6159848484848485" width="3.6359090909090908" height="3.6359090909090908" rx="0"></rect><rect x="58.7905303030303" y="0.6159848484848485" width="3.6359090909090908" height="3.6359090909090908" rx="0"></rect><rect x="63.638409090909086" y="0.6159848484848485" width="3.6359090909090908" height="3.6359090909090908" rx="0"></rect><rect x="78.18204545454546" y="0.6159848484848485" width="3.6359090909090908" height="3.6359090909090908" rx="0"></rect><rect x="87.87780303030303" y="0.6159848484848485" width="3.6359090909090908" height="3.6359090909090908" rx="0"></rect><rect x="102.4214393939394" y="0.6159848484848485" width="3.6359090909090908" height="3.6359090909090908" rx="0"></rect><rect x="107.26931818181819" y="0.6159848484848485" width="3.6359090909090908" height="3.6359090909090908" rx="0"></rect><rect x="39.39901515151515" y="5.4638636363636355" width="3.6359090909090908" height="3.6359090909090908" rx="0"></rect><rect x="44.246893939393935" y="5.4638636363636355" width="3.6359090909090908" height="3.6359090909090908" rx="0"></rect><rect x="49.094772727272726" y="5.4638636363636355" width="3.6359090909090908" height="3.6359090909090908" rx="0"></rect><rect x="63.638409090909086" y="5.4638636363636355" width="3.6359090909090908" height="3.6359090909090908" rx="0"></rect><rect x="68.48628787878789" y="5.4638636363636355" width="3.6359090909090908" height="3.6359090909090908" rx="0"></rect><rect x="73.33416666666668" y="5.4638636363636355" width="3.6359090909090908" height="3.6359090909090908" rx="0"></rect><rect x="83.02992424242424" y="5.4638636363636355" width="3.6359090909090908" height="3.6359090909090908" rx="0"></rect><rect x="92.72568181818183" y="5.4638636363636355" width="3.6359090909090908" height="3.6359090909090908" rx="0"></rect><rect x="107.26931818181819" y="5.4638636363636355" width="3.6359090909090908" height="3.6359090909090908" rx="0"></rect><rect x="49.094772727272726" y="10.311742424242423" width="3.6359090909090908" height="3.6359090909090908" rx="0"></rect><rect x="58.7905303030303" y="10.311742424242423" width="3.6359090909090908" height="3.6359090909090908" rx="0"></rect><rect x="63.638409090909086" y="10.311742424242423" width="3.6359090909090908" height="3.6359090909090908" rx="0"></rect><rect x="68.48628787878789" y="10.311742424242423" width="3.6359090909090908" height="3.6359090909090908" rx="0"></rect><rect x="73.33416666666668" y="10.311742424242423" width="3.6359090909090908" height="3.6359090909090908" rx="0"></rect><rect x="83.02992424242424" y="10.311742424242423" width="3.6359090909090908" height="3.6359090909090908" rx="0"></rect><rect x="87.87780303030303" y="10.311742424242423" width="3.6359090909090908" height="3.6359090909090908" rx="0"></rect><rect x="102.4214393939394" y="10.311742424242423" width="3.6359090909090908" height="3.6359090909090908" rx="0"></rect><rect x="107.26931818181819" y="10.311742424242423" width="3.6359090909090908" height="3.6359090909090908" rx="0"></rect><rect x="116.96507575757576" y="10.311742424242423" width="3.6359090909090908" height="3.6359090909090908" rx="0"></rect><rect x="39.39901515151515" y="15.15962121212121" width="3.6359090909090908" height="3.6359090909090908" rx="0"></rect><rect x="49.094772727272726" y="15.15962121212121" width="3.6359090909090908" height="3.6359090909090908" rx="0"></rect><rect x="58.7905303030303" y="15.15962121212121" width="3.6359090909090908" height="3.6359090909090908" rx="0"></rect><rect x="63.638409090909086" y="15.15962121212121" width="3.6359090909090908" height="3.6359090909090908" rx="0"></rect><rect x="68.48628787878789" y="15.15962121212121" width="3.6359090909090908" height="3.6359090909090908" rx="0"></rect><rect x="73.33416666666668" y="15.15962121212121" width="3.6359090909090908" height="3.6359090909090908" rx="0"></rect><rect x="92.72568181818183" y="15.15962121212121" width="3.6359090909090908" height="3.6359090909090908" rx="0"></rect><rect x="102.4214393939394" y="15.15962121212121" width="3.6359090909090908" height="3.6359090909090908" rx="0"></rect><rect x="107.26931818181819" y="15.15962121212121" width="3.6359090909090908" height="3.6359090909090908" rx="0"></rect><rect x="39.39901515151515" y="20.0075" width="3.6359090909090908" height="3.6359090909090908" rx="0"></rect><rect x="44.246893939393935" y="20.0075" width="3.6359090909090908" height="3.6359090909090908" rx="0"></rect><rect x="53.94265151515152" y="20.0075" width="3.6359090909090908" height="3.6359090909090908" rx="0"></rect><rect x="58.7905303030303" y="20.0075" width="3.6359090909090908" height="3.6359090909090908" rx="0"></rect><rect x="63.638409090909086" y="20.0075" width="3.6359090909090908" height="3.6359090909090908" rx="0"></rect><rect x="73.33416666666668" y="20.0075" width="3.6359090909090908" height="3.6359090909090908" rx="0"></rect><rect x="87.87780303030303" y="20.0075" width="3.6359090909090908" height="3.6359090909090908" rx="0"></rect><rect x="97.57356060606061" y="20.0075" width="3.6359090909090908" height="3.6359090909090908" rx="0"></rect><rect x="107.26931818181819" y="20.0075" width="3.6359090909090908" height="3.6359090909090908" rx="0"></rect><rect x="116.96507575757576" y="20.0075" width="3.6359090909090908" height="3.6359090909090908" rx="0"></rect><rect x="49.094772727272726" y="24.855378787878788" width="3.6359090909090908" height="3.6359090909090908" rx="0"></rect><rect x="63.638409090909086" y="24.855378787878788" width="3.6359090909090908" height="3.6359090909090908" rx="0"></rect><rect x="68.48628787878789" y="24.855378787878788" width="3.6359090909090908" height="3.6359090909090908" rx="0"></rect><rect x="73.33416666666668" y="24.855378787878788" width="3.6359090909090908" height="3.6359090909090908" rx="0"></rect><rect x="78.18204545454546" y="24.855378787878788" width="3.6359090909090908" height="3.6359090909090908" rx="0"></rect><rect x="97.57356060606061" y="24.855378787878788" width="3.6359090909090908" height="3.6359090909090908" rx="0"></rect><rect x="102.4214393939394" y="24.855378787878788" width="3.6359090909090908" height="3.6359090909090908" rx="0"></rect><rect x="112.11719696969698" y="24.855378787878788" width="3.6359090909090908" height="3.6359090909090908" rx="0"></rect><rect x="116.96507575757576" y="24.855378787878788" width="3.6359090909090908" height="3.6359090909090908" rx="0"></rect><rect x="39.39901515151515" y="29.703257575757576" width="3.6359090909090908" height="3.6359090909090908" rx="0"></rect><rect x="49.094772727272726" y="29.703257575757576" width="3.6359090909090908" height="3.6359090909090908" rx="0"></rect><rect x="58.7905303030303" y="29.703257575757576" width="3.6359090909090908" height="3.6359090909090908" rx="0"></rect><rect x="68.48628787878789" y="29.703257575757576" width="3.6359090909090908" height="3.6359090909090908" rx="0"></rect><rect x="78.18204545454546" y="29.703257575757576" width="3.6359090909090908" height="3.6359090909090908" rx="0"></rect><rect x="87.87780303030303" y="29.703257575757576" width="3.6359090909090908" height="3.6359090909090908" rx="0"></rect><rect x="97.57356060606061" y="29.703257575757576" width="3.6359090909090908" height="3.6359090909090908" rx="0"></rect><rect x="107.26931818181819" y="29.703257575757576" width="3.6359090909090908" height="3.6359090909090908" rx="0"></rect><rect x="116.96507575757576" y="29.703257575757576" width="3.6359090909090908" height="3.6359090909090908" rx="0"></rect><rect x="39.39901515151515" y="34.55113636363637" width="3.6359090909090908" height="3.6359090909090908" rx="0"></rect><rect x="53.94265151515152" y="34.55113636363637" width="3.6359090909090908" height="3.6359090909090908" rx="0"></rect><rect x="63.638409090909086" y="34.55113636363637" width="3.6359090909090908" height="3.6359090909090908" rx="0"></rect><rect x="68.48628787878789" y="34.55113636363637" width="3.6359090909090908" height="3.6359090909090908" rx="0"></rect><rect x="73.33416666666668" y="34.55113636363637" width="3.6359090909090908" height="3.6359090909090908" rx="0"></rect><rect x="78.18204545454546" y="34.55113636363637" width="3.6359090909090908" height="3.6359090909090908" rx="0"></rect><rect x="92.72568181818183" y="34.55113636363637" width="3.6359090909090908" height="3.6359090909090908" rx="0"></rect><rect x="97.57356060606061" y="34.55113636363637" width="3.6359090909090908" height="3.6359090909090908" rx="0"></rect><rect x="116.96507575757576" y="34.55113636363637" width="3.6359090909090908" height="3.6359090909090908" rx="0"></rect><rect x="5.4638636363636355" y="39.39901515151515" width="3.6359090909090908" height="3.6359090909090908" rx="0"></rect><rect x="15.15962121212121" y="39.39901515151515" width="3.6359090909090908" height="3.6359090909090908" rx="0"></rect><rect x="20.0075" y="39.39901515151515" width="3.6359090909090908" height="3.6359090909090908" rx="0"></rect><rect x="24.855378787878788" y="39.39901515151515" width="3.6359090909090908" height="3.6359090909090908" rx="0"></rect><rect x="29.703257575757576" y="39.39901515151515" width="3.6359090909090908" height="3.6359090909090908" rx="0"></rect><rect x="39.39901515151515" y="39.39901515151515" width="3.6359090909090908" height="3.6359090909090908" rx="0"></rect><rect x="44.246893939393935" y="39.39901515151515" width="3.6359090909090908" height="3.6359090909090908" rx="0"></rect><rect x="58.7905303030303" y="39.39901515151515" width="3.6359090909090908" height="3.6359090909090908" rx="0"></rect><rect x="68.48628787878789" y="39.39901515151515" width="3.6359090909090908" height="3.6359090909090908" rx="0"></rect><rect x="73.33416666666668" y="39.39901515151515" width="3.6359090909090908" height="3.6359090909090908" rx="0"></rect><rect x="83.02992424242424" y="39.39901515151515" width="3.6359090909090908" height="3.6359090909090908" rx="0"></rect><rect x="92.72568181818183" y="39.39901515151515" width="3.6359090909090908" height="3.6359090909090908" rx="0"></rect><rect x="107.26931818181819" y="39.39901515151515" width="3.6359090909090908" height="3.6359090909090908" rx="0"></rect><rect x="116.96507575757576" y="39.39901515151515" width="3.6359090909090908" height="3.6359090909090908" rx="0"></rect><rect x="121.81295454545455" y="39.39901515151515" width="3.6359090909090908" height="3.6359090909090908" rx="0"></rect><rect x="126.66083333333333" y="39.39901515151515" width="3.6359090909090908" height="3.6359090909090908" rx="0"></rect><rect x="136.3565909090909" y="39.39901515151515" width="3.6359090909090908" height="3.6359090909090908" rx="0"></rect><rect x="141.20446969696968" y="39.39901515151515" width="3.6359090909090908" height="3.6359090909090908" rx="0"></rect><rect x="150.90022727272725" y="39.39901515151515" width="3.6359090909090908" height="3.6359090909090908" rx="0"></rect><rect x="0.6159848484848485" y="44.246893939393935" width="3.6359090909090908" height="3.6359090909090908" rx="0"></rect><rect x="10.311742424242423" y="44.246893939393935" width="3.6359090909090908" height="3.6359090909090908" rx="0"></rect><rect x="20.0075" y="44.246893939393935" width="3.6359090909090908" height="3.6359090909090908" rx="0"></rect><rect x="34.55113636363637" y="44.246893939393935" width="3.6359090909090908" height="3.6359090909090908" rx="0"></rect><rect x="49.094772727272726" y="44.246893939393935" width="3.6359090909090908" height="3.6359090909090908" rx="0"></rect><rect x="58.7905303030303" y="44.246893939393935" width="3.6359090909090908" height="3.6359090909090908" rx="0"></rect><rect x="63.638409090909086" y="44.246893939393935" width="3.6359090909090908" height="3.6359090909090908" rx="0"></rect><rect x="68.48628787878789" y="44.246893939393935" width="3.6359090909090908" height="3.6359090909090908" rx="0"></rect><rect x="87.87780303030303" y="44.246893939393935" width="3.6359090909090908" height="3.6359090909090908" rx="0"></rect><rect x="92.72568181818183" y="44.246893939393935" width="3.6359090909090908" height="3.6359090909090908" rx="0"></rect><rect x="102.4214393939394" y="44.246893939393935" width="3.6359090909090908" height="3.6359090909090908" rx="0"></rect><rect x="107.26931818181819" y="44.246893939393935" width="3.6359090909090908" height="3.6359090909090908" rx="0"></rect><rect x="112.11719696969698" y="44.246893939393935" width="3.6359090909090908" height="3.6359090909090908" rx="0"></rect><rect x="136.3565909090909" y="44.246893939393935" width="3.6359090909090908" height="3.6359090909090908" rx="0"></rect><rect x="141.20446969696968" y="44.246893939393935" width="3.6359090909090908" height="3.6359090909090908" rx="0"></rect><rect x="146.05234848484847" y="44.246893939393935" width="3.6359090909090908" height="3.6359090909090908" rx="0"></rect><rect x="0.6159848484848485" y="49.094772727272726" width="3.6359090909090908" height="3.6359090909090908" rx="0"></rect><rect x="5.4638636363636355" y="49.094772727272726" width="3.6359090909090908" height="3.6359090909090908" rx="0"></rect><rect x="10.311742424242423" y="49.094772727272726" width="3.6359090909090908" height="3.6359090909090908" rx="0"></rect><rect x="20.0075" y="49.094772727272726" width="3.6359090909090908" height="3.6359090909090908" rx="0"></rect><rect x="29.703257575757576" y="49.094772727272726" width="3.6359090909090908" height="3.6359090909090908" rx="0"></rect><rect x="39.39901515151515" y="49.094772727272726" width="3.6359090909090908" height="3.6359090909090908" rx="0"></rect><rect x="44.246893939393935" y="49.094772727272726" width="3.6359090909090908" height="3.6359090909090908" rx="0"></rect><rect x="49.094772727272726" y="49.094772727272726" width="3.6359090909090908" height="3.6359090909090908" rx="0"></rect><rect x="53.94265151515152" y="49.094772727272726" width="3.6359090909090908" height="3.6359090909090908" rx="0"></rect><rect x="58.7905303030303" y="49.094772727272726" width="3.6359090909090908" height="3.6359090909090908" rx="0"></rect><rect x="63.638409090909086" y="49.094772727272726" width="3.6359090909090908" height="3.6359090909090908" rx="0"></rect><rect x="68.48628787878789" y="49.094772727272726" width="3.6359090909090908" height="3.6359090909090908" rx="0"></rect><rect x="83.02992424242424" y="49.094772727272726" width="3.6359090909090908" height="3.6359090909090908" rx="0"></rect><rect x="87.87780303030303" y="49.094772727272726" width="3.6359090909090908" height="3.6359090909090908" rx="0"></rect><rect x="102.4214393939394" y="49.094772727272726" width="3.6359090909090908" height="3.6359090909090908" rx="0"></rect><rect x="112.11719696969698" y="49.094772727272726" width="3.6359090909090908" height="3.6359090909090908" rx="0"></rect><rect x="121.81295454545455" y="49.094772727272726" width="3.6359090909090908" height="3.6359090909090908" rx="0"></rect><rect x="136.3565909090909" y="49.094772727272726" width="3.6359090909090908" height="3.6359090909090908" rx="0"></rect><rect x="141.20446969696968" y="49.094772727272726" width="3.6359090909090908" height="3.6359090909090908" rx="0"></rect><rect x="146.05234848484847" y="49.094772727272726" width="3.6359090909090908" height="3.6359090909090908" rx="0"></rect><rect x="150.90022727272725" y="49.094772727272726" width="3.6359090909090908" height="3.6359090909090908" rx="0"></rect><rect x="155.74810606060603" y="49.094772727272726" width="3.6359090909090908" height="3.6359090909090908" rx="0"></rect><rect x="0.6159848484848485" y="53.94265151515152" width="3.6359090909090908" height="3.6359090909090908" rx="0"></rect><rect x="44.246893939393935" y="53.94265151515152" width="3.6359090909090908" height="3.6359090909090908" rx="0"></rect><rect x="49.094772727272726" y="53.94265151515152" width="3.6359090909090908" height="3.6359090909090908" rx="0"></rect><rect x="68.48628787878789" y="53.94265151515152" width="3.6359090909090908" height="3.6359090909090908" rx="0"></rect><rect x="78.18204545454546" y="53.94265151515152" width="3.6359090909090908" height="3.6359090909090908" rx="0"></rect><rect x="83.02992424242424" y="53.94265151515152" width="3.6359090909090908" height="3.6359090909090908" rx="0"></rect><rect x="92.72568181818183" y="53.94265151515152" width="3.6359090909090908" height="3.6359090909090908" rx="0"></rect><rect x="107.26931818181819" y="53.94265151515152" width="3.6359090909090908" height="3.6359090909090908" rx="0"></rect><rect x="116.96507575757576" y="53.94265151515152" width="3.6359090909090908" height="3.6359090909090908" rx="0"></rect><rect x="126.66083333333333" y="53.94265151515152" width="3.6359090909090908" height="3.6359090909090908" rx="0"></rect><rect x="131.50871212121208" y="53.94265151515152" width="3.6359090909090908" height="3.6359090909090908" rx="0"></rect><rect x="146.05234848484847" y="53.94265151515152" width="3.6359090909090908" height="3.6359090909090908" rx="0"></rect><rect x="150.90022727272725" y="53.94265151515152" width="3.6359090909090908" height="3.6359090909090908" rx="0"></rect><rect x="155.74810606060603" y="53.94265151515152" width="3.6359090909090908" height="3.6359090909090908" rx="0"></rect><rect x="5.4638636363636355" y="58.7905303030303" width="3.6359090909090908" height="3.6359090909090908" rx="0"></rect><rect x="10.311742424242423" y="58.7905303030303" width="3.6359090909090908" height="3.6359090909090908" rx="0"></rect><rect x="29.703257575757576" y="58.7905303030303" width="3.6359090909090908" height="3.6359090909090908" rx="0"></rect><rect x="34.55113636363637" y="58.7905303030303" width="3.6359090909090908" height="3.6359090909090908" rx="0"></rect><rect x="39.39901515151515" y="58.7905303030303" width="3.6359090909090908" height="3.6359090909090908" rx="0"></rect><rect x="44.246893939393935" y="58.7905303030303" width="3.6359090909090908" height="3.6359090909090908" rx="0"></rect><rect x="58.7905303030303" y="58.7905303030303" width="3.6359090909090908" height="3.6359090909090908" rx="0"></rect><rect x="68.48628787878789" y="58.7905303030303" width="3.6359090909090908" height="3.6359090909090908" rx="0"></rect><rect x="78.18204545454546" y="58.7905303030303" width="3.6359090909090908" height="3.6359090909090908" rx="0"></rect><rect x="83.02992424242424" y="58.7905303030303" width="3.6359090909090908" height="3.6359090909090908" rx="0"></rect><rect x="87.87780303030303" y="58.7905303030303" width="3.6359090909090908" height="3.6359090909090908" rx="0"></rect><rect x="97.57356060606061" y="58.7905303030303" width="3.6359090909090908" height="3.6359090909090908" rx="0"></rect><rect x="102.4214393939394" y="58.7905303030303" width="3.6359090909090908" height="3.6359090909090908" rx="0"></rect><rect x="107.26931818181819" y="58.7905303030303" width="3.6359090909090908" height="3.6359090909090908" rx="0"></rect><rect x="112.11719696969698" y="58.7905303030303" width="3.6359090909090908" height="3.6359090909090908" rx="0"></rect><rect x="126.66083333333333" y="58.7905303030303" width="3.6359090909090908" height="3.6359090909090908" rx="0"></rect><rect x="131.50871212121208" y="58.7905303030303" width="3.6359090909090908" height="3.6359090909090908" rx="0"></rect><rect x="155.74810606060603" y="58.7905303030303" width="3.6359090909090908" height="3.6359090909090908" rx="0"></rect><rect x="15.15962121212121" y="63.638409090909086" width="3.6359090909090908" height="3.6359090909090908" rx="0"></rect><rect x="24.855378787878788" y="63.638409090909086" width="3.6359090909090908" height="3.6359090909090908" rx="0"></rect><rect x="39.39901515151515" y="63.638409090909086" width="3.6359090909090908" height="3.6359090909090908" rx="0"></rect><rect x="44.246893939393935" y="63.638409090909086" width="3.6359090909090908" height="3.6359090909090908" rx="0"></rect><rect x="53.94265151515152" y="63.638409090909086" width="3.6359090909090908" height="3.6359090909090908" rx="0"></rect><rect x="58.7905303030303" y="63.638409090909086" width="3.6359090909090908" height="3.6359090909090908" rx="0"></rect><rect x="63.638409090909086" y="63.638409090909086" width="3.6359090909090908" height="3.6359090909090908" rx="0"></rect><rect x="73.33416666666668" y="63.638409090909086" width="3.6359090909090908" height="3.6359090909090908" rx="0"></rect><rect x="92.72568181818183" y="63.638409090909086" width="3.6359090909090908" height="3.6359090909090908" rx="0"></rect><rect x="102.4214393939394" y="63.638409090909086" width="3.6359090909090908" height="3.6359090909090908" rx="0"></rect><rect x="112.11719696969698" y="63.638409090909086" width="3.6359090909090908" height="3.6359090909090908" rx="0"></rect><rect x="116.96507575757576" y="63.638409090909086" width="3.6359090909090908" height="3.6359090909090908" rx="0"></rect><rect x="121.81295454545455" y="63.638409090909086" width="3.6359090909090908" height="3.6359090909090908" rx="0"></rect><rect x="15.15962121212121" y="68.48628787878789" width="3.6359090909090908" height="3.6359090909090908" rx="0"></rect><rect x="20.0075" y="68.48628787878789" width="3.6359090909090908" height="3.6359090909090908" rx="0"></rect><rect x="29.703257575757576" y="68.48628787878789" width="3.6359090909090908" height="3.6359090909090908" rx="0"></rect><rect x="34.55113636363637" y="68.48628787878789" width="3.6359090909090908" height="3.6359090909090908" rx="0"></rect><rect x="39.39901515151515" y="68.48628787878789" width="3.6359090909090908" height="3.6359090909090908" rx="0"></rect><rect x="53.94265151515152" y="68.48628787878789" width="3.6359090909090908" height="3.6359090909090908" rx="0"></rect><rect x="63.638409090909086" y="68.48628787878789" width="3.6359090909090908" height="3.6359090909090908" rx="0"></rect><rect x="73.33416666666668" y="68.48628787878789" width="3.6359090909090908" height="3.6359090909090908" rx="0"></rect><rect x="83.02992424242424" y="68.48628787878789" width="3.6359090909090908" height="3.6359090909090908" rx="0"></rect><rect x="102.4214393939394" y="68.48628787878789" width="3.6359090909090908" height="3.6359090909090908" rx="0"></rect><rect x="116.96507575757576" y="68.48628787878789" width="3.6359090909090908" height="3.6359090909090908" rx="0"></rect><rect x="126.66083333333333" y="68.48628787878789" width="3.6359090909090908" height="3.6359090909090908" rx="0"></rect><rect x="131.50871212121208" y="68.48628787878789" width="3.6359090909090908" height="3.6359090909090908" rx="0"></rect><rect x="141.20446969696968" y="68.48628787878789" width="3.6359090909090908" height="3.6359090909090908" rx="0"></rect><rect x="146.05234848484847" y="68.48628787878789" width="3.6359090909090908" height="3.6359090909090908" rx="0"></rect><rect x="0.6159848484848485" y="73.33416666666668" width="3.6359090909090908" height="3.6359090909090908" rx="0"></rect><rect x="15.15962121212121" y="73.33416666666668" width="3.6359090909090908" height="3.6359090909090908" rx="0"></rect><rect x="39.39901515151515" y="73.33416666666668" width="3.6359090909090908" height="3.6359090909090908" rx="0"></rect><rect x="44.246893939393935" y="73.33416666666668" width="3.6359090909090908" height="3.6359090909090908" rx="0"></rect><rect x="49.094772727272726" y="73.33416666666668" width="3.6359090909090908" height="3.6359090909090908" rx="0"></rect><rect x="53.94265151515152" y="73.33416666666668" width="3.6359090909090908" height="3.6359090909090908" rx="0"></rect><rect x="58.7905303030303" y="73.33416666666668" width="3.6359090909090908" height="3.6359090909090908" rx="0"></rect><rect x="78.18204545454546" y="73.33416666666668" width="3.6359090909090908" height="3.6359090909090908" rx="0"></rect><rect x="83.02992424242424" y="73.33416666666668" width="3.6359090909090908" height="3.6359090909090908" rx="0"></rect><rect x="87.87780303030303" y="73.33416666666668" width="3.6359090909090908" height="3.6359090909090908" rx="0"></rect><rect x="92.72568181818183" y="73.33416666666668" width="3.6359090909090908" height="3.6359090909090908" rx="0"></rect><rect x="112.11719696969698" y="73.33416666666668" width="3.6359090909090908" height="3.6359090909090908" rx="0"></rect><rect x="116.96507575757576" y="73.33416666666668" width="3.6359090909090908" height="3.6359090909090908" rx="0"></rect><rect x="121.81295454545455" y="73.33416666666668" width="3.6359090909090908" height="3.6359090909090908" rx="0"></rect><rect x="136.3565909090909" y="73.33416666666668" width="3.6359090909090908" height="3.6359090909090908" rx="0"></rect><rect x="141.20446969696968" y="73.33416666666668" width="3.6359090909090908" height="3.6359090909090908" rx="0"></rect><rect x="146.05234848484847" y="73.33416666666668" width="3.6359090909090908" height="3.6359090909090908" rx="0"></rect><rect x="155.74810606060603" y="73.33416666666668" width="3.6359090909090908" height="3.6359090909090908" rx="0"></rect><rect x="0.6159848484848485" y="78.18204545454546" width="3.6359090909090908" height="3.6359090909090908" rx="0"></rect><rect x="15.15962121212121" y="78.18204545454546" width="3.6359090909090908" height="3.6359090909090908" rx="0"></rect><rect x="20.0075" y="78.18204545454546" width="3.6359090909090908" height="3.6359090909090908" rx="0"></rect><rect x="24.855378787878788" y="78.18204545454546" width="3.6359090909090908" height="3.6359090909090908" rx="0"></rect><rect x="29.703257575757576" y="78.18204545454546" width="3.6359090909090908" height="3.6359090909090908" rx="0"></rect><rect x="34.55113636363637" y="78.18204545454546" width="3.6359090909090908" height="3.6359090909090908" rx="0"></rect><rect x="39.39901515151515" y="78.18204545454546" width="3.6359090909090908" height="3.6359090909090908" rx="0"></rect><rect x="49.094772727272726" y="78.18204545454546" width="3.6359090909090908" height="3.6359090909090908" rx="0"></rect><rect x="58.7905303030303" y="78.18204545454546" width="3.6359090909090908" height="3.6359090909090908" rx="0"></rect><rect x="63.638409090909086" y="78.18204545454546" width="3.6359090909090908" height="3.6359090909090908" rx="0"></rect><rect x="73.33416666666668" y="78.18204545454546" width="3.6359090909090908" height="3.6359090909090908" rx="0"></rect><rect x="78.18204545454546" y="78.18204545454546" width="3.6359090909090908" height="3.6359090909090908" rx="0"></rect><rect x="87.87780303030303" y="78.18204545454546" width="3.6359090909090908" height="3.6359090909090908" rx="0"></rect><rect x="92.72568181818183" y="78.18204545454546" width="3.6359090909090908" height="3.6359090909090908" rx="0"></rect><rect x="97.57356060606061" y="78.18204545454546" width="3.6359090909090908" height="3.6359090909090908" rx="0"></rect><rect x="107.26931818181819" y="78.18204545454546" width="3.6359090909090908" height="3.6359090909090908" rx="0"></rect><rect x="112.11719696969698" y="78.18204545454546" width="3.6359090909090908" height="3.6359090909090908" rx="0"></rect><rect x="116.96507575757576" y="78.18204545454546" width="3.6359090909090908" height="3.6359090909090908" rx="0"></rect><rect x="121.81295454545455" y="78.18204545454546" width="3.6359090909090908" height="3.6359090909090908" rx="0"></rect><rect x="126.66083333333333" y="78.18204545454546" width="3.6359090909090908" height="3.6359090909090908" rx="0"></rect><rect x="131.50871212121208" y="78.18204545454546" width="3.6359090909090908" height="3.6359090909090908" rx="0"></rect><rect x="136.3565909090909" y="78.18204545454546" width="3.6359090909090908" height="3.6359090909090908" rx="0"></rect><rect x="0.6159848484848485" y="83.02992424242424" width="3.6359090909090908" height="3.6359090909090908" rx="0"></rect><rect x="5.4638636363636355" y="83.02992424242424" width="3.6359090909090908" height="3.6359090909090908" rx="0"></rect><rect x="10.311742424242423" y="83.02992424242424" width="3.6359090909090908" height="3.6359090909090908" rx="0"></rect><rect x="15.15962121212121" y="83.02992424242424" width="3.6359090909090908" height="3.6359090909090908" rx="0"></rect><rect x="39.39901515151515" y="83.02992424242424" width="3.6359090909090908" height="3.6359090909090908" rx="0"></rect><rect x="58.7905303030303" y="83.02992424242424" width="3.6359090909090908" height="3.6359090909090908" rx="0"></rect><rect x="68.48628787878789" y="83.02992424242424" width="3.6359090909090908" height="3.6359090909090908" rx="0"></rect><rect x="73.33416666666668" y="83.02992424242424" width="3.6359090909090908" height="3.6359090909090908" rx="0"></rect><rect x="87.87780303030303" y="83.02992424242424" width="3.6359090909090908" height="3.6359090909090908" rx="0"></rect><rect x="92.72568181818183" y="83.02992424242424" width="3.6359090909090908" height="3.6359090909090908" rx="0"></rect><rect x="97.57356060606061" y="83.02992424242424" width="3.6359090909090908" height="3.6359090909090908" rx="0"></rect><rect x="102.4214393939394" y="83.02992424242424" width="3.6359090909090908" height="3.6359090909090908" rx="0"></rect><rect x="107.26931818181819" y="83.02992424242424" width="3.6359090909090908" height="3.6359090909090908" rx="0"></rect><rect x="126.66083333333333" y="83.02992424242424" width="3.6359090909090908" height="3.6359090909090908" rx="0"></rect><rect x="136.3565909090909" y="83.02992424242424" width="3.6359090909090908" height="3.6359090909090908" rx="0"></rect><rect x="146.05234848484847" y="83.02992424242424" width="3.6359090909090908" height="3.6359090909090908" rx="0"></rect><rect x="155.74810606060603" y="83.02992424242424" width="3.6359090909090908" height="3.6359090909090908" rx="0"></rect><rect x="5.4638636363636355" y="87.87780303030303" width="3.6359090909090908" height="3.6359090909090908" rx="0"></rect><rect x="15.15962121212121" y="87.87780303030303" width="3.6359090909090908" height="3.6359090909090908" rx="0"></rect><rect x="29.703257575757576" y="87.87780303030303" width="3.6359090909090908" height="3.6359090909090908" rx="0"></rect><rect x="34.55113636363637" y="87.87780303030303" width="3.6359090909090908" height="3.6359090909090908" rx="0"></rect><rect x="53.94265151515152" y="87.87780303030303" width="3.6359090909090908" height="3.6359090909090908" rx="0"></rect><rect x="58.7905303030303" y="87.87780303030303" width="3.6359090909090908" height="3.6359090909090908" rx="0"></rect><rect x="83.02992424242424" y="87.87780303030303" width="3.6359090909090908" height="3.6359090909090908" rx="0"></rect><rect x="87.87780303030303" y="87.87780303030303" width="3.6359090909090908" height="3.6359090909090908" rx="0"></rect><rect x="92.72568181818183" y="87.87780303030303" width="3.6359090909090908" height="3.6359090909090908" rx="0"></rect><rect x="112.11719696969698" y="87.87780303030303" width="3.6359090909090908" height="3.6359090909090908" rx="0"></rect><rect x="121.81295454545455" y="87.87780303030303" width="3.6359090909090908" height="3.6359090909090908" rx="0"></rect><rect x="131.50871212121208" y="87.87780303030303" width="3.6359090909090908" height="3.6359090909090908" rx="0"></rect><rect x="141.20446969696968" y="87.87780303030303" width="3.6359090909090908" height="3.6359090909090908" rx="0"></rect><rect x="146.05234848484847" y="87.87780303030303" width="3.6359090909090908" height="3.6359090909090908" rx="0"></rect><rect x="155.74810606060603" y="87.87780303030303" width="3.6359090909090908" height="3.6359090909090908" rx="0"></rect><rect x="10.311742424242423" y="92.72568181818183" width="3.6359090909090908" height="3.6359090909090908" rx="0"></rect><rect x="20.0075" y="92.72568181818183" width="3.6359090909090908" height="3.6359090909090908" rx="0"></rect><rect x="39.39901515151515" y="92.72568181818183" width="3.6359090909090908" height="3.6359090909090908" rx="0"></rect><rect x="44.246893939393935" y="92.72568181818183" width="3.6359090909090908" height="3.6359090909090908" rx="0"></rect><rect x="63.638409090909086" y="92.72568181818183" width="3.6359090909090908" height="3.6359090909090908" rx="0"></rect><rect x="78.18204545454546" y="92.72568181818183" width="3.6359090909090908" height="3.6359090909090908" rx="0"></rect><rect x="87.87780303030303" y="92.72568181818183" width="3.6359090909090908" height="3.6359090909090908" rx="0"></rect><rect x="92.72568181818183" y="92.72568181818183" width="3.6359090909090908" height="3.6359090909090908" rx="0"></rect><rect x="97.57356060606061" y="92.72568181818183" width="3.6359090909090908" height="3.6359090909090908" rx="0"></rect><rect x="102.4214393939394" y="92.72568181818183" width="3.6359090909090908" height="3.6359090909090908" rx="0"></rect><rect x="116.96507575757576" y="92.72568181818183" width="3.6359090909090908" height="3.6359090909090908" rx="0"></rect><rect x="126.66083333333333" y="92.72568181818183" width="3.6359090909090908" height="3.6359090909090908" rx="0"></rect><rect x="136.3565909090909" y="92.72568181818183" width="3.6359090909090908" height="3.6359090909090908" rx="0"></rect><rect x="141.20446969696968" y="92.72568181818183" width="3.6359090909090908" height="3.6359090909090908" rx="0"></rect><rect x="146.05234848484847" y="92.72568181818183" width="3.6359090909090908" height="3.6359090909090908" rx="0"></rect><rect x="150.90022727272725" y="92.72568181818183" width="3.6359090909090908" height="3.6359090909090908" rx="0"></rect><rect x="0.6159848484848485" y="97.57356060606061" width="3.6359090909090908" height="3.6359090909090908" rx="0"></rect><rect x="5.4638636363636355" y="97.57356060606061" width="3.6359090909090908" height="3.6359090909090908" rx="0"></rect><rect x="29.703257575757576" y="97.57356060606061" width="3.6359090909090908" height="3.6359090909090908" rx="0"></rect><rect x="34.55113636363637" y="97.57356060606061" width="3.6359090909090908" height="3.6359090909090908" rx="0"></rect><rect x="53.94265151515152" y="97.57356060606061" width="3.6359090909090908" height="3.6359090909090908" rx="0"></rect><rect x="63.638409090909086" y="97.57356060606061" width="3.6359090909090908" height="3.6359090909090908" rx="0"></rect><rect x="68.48628787878789" y="97.57356060606061" width="3.6359090909090908" height="3.6359090909090908" rx="0"></rect><rect x="78.18204545454546" y="97.57356060606061" width="3.6359090909090908" height="3.6359090909090908" rx="0"></rect><rect x="87.87780303030303" y="97.57356060606061" width="3.6359090909090908" height="3.6359090909090908" rx="0"></rect><rect x="97.57356060606061" y="97.57356060606061" width="3.6359090909090908" height="3.6359090909090908" rx="0"></rect><rect x="102.4214393939394" y="97.57356060606061" width="3.6359090909090908" height="3.6359090909090908" rx="0"></rect><rect x="131.50871212121208" y="97.57356060606061" width="3.6359090909090908" height="3.6359090909090908" rx="0"></rect><rect x="141.20446969696968" y="97.57356060606061" width="3.6359090909090908" height="3.6359090909090908" rx="0"></rect><rect x="155.74810606060603" y="97.57356060606061" width="3.6359090909090908" height="3.6359090909090908" rx="0"></rect><rect x="0.6159848484848485" y="102.4214393939394" width="3.6359090909090908" height="3.6359090909090908" rx="0"></rect><rect x="5.4638636363636355" y="102.4214393939394" width="3.6359090909090908" height="3.6359090909090908" rx="0"></rect><rect x="10.311742424242423" y="102.4214393939394" width="3.6359090909090908" height="3.6359090909090908" rx="0"></rect><rect x="15.15962121212121" y="102.4214393939394" width="3.6359090909090908" height="3.6359090909090908" rx="0"></rect><rect x="20.0075" y="102.4214393939394" width="3.6359090909090908" height="3.6359090909090908" rx="0"></rect><rect x="24.855378787878788" y="102.4214393939394" width="3.6359090909090908" height="3.6359090909090908" rx="0"></rect><rect x="34.55113636363637" y="102.4214393939394" width="3.6359090909090908" height="3.6359090909090908" rx="0"></rect><rect x="49.094772727272726" y="102.4214393939394" width="3.6359090909090908" height="3.6359090909090908" rx="0"></rect><rect x="58.7905303030303" y="102.4214393939394" width="3.6359090909090908" height="3.6359090909090908" rx="0"></rect><rect x="63.638409090909086" y="102.4214393939394" width="3.6359090909090908" height="3.6359090909090908" rx="0"></rect><rect x="73.33416666666668" y="102.4214393939394" width="3.6359090909090908" height="3.6359090909090908" rx="0"></rect><rect x="78.18204545454546" y="102.4214393939394" width="3.6359090909090908" height="3.6359090909090908" rx="0"></rect><rect x="83.02992424242424" y="102.4214393939394" width="3.6359090909090908" height="3.6359090909090908" rx="0"></rect><rect x="87.87780303030303" y="102.4214393939394" width="3.6359090909090908" height="3.6359090909090908" rx="0"></rect><rect x="97.57356060606061" y="102.4214393939394" width="3.6359090909090908" height="3.6359090909090908" rx="0"></rect><rect x="107.26931818181819" y="102.4214393939394" width="3.6359090909090908" height="3.6359090909090908" rx="0"></rect><rect x="112.11719696969698" y="102.4214393939394" width="3.6359090909090908" height="3.6359090909090908" rx="0"></rect><rect x="116.96507575757576" y="102.4214393939394" width="3.6359090909090908" height="3.6359090909090908" rx="0"></rect><rect x="131.50871212121208" y="102.4214393939394" width="3.6359090909090908" height="3.6359090909090908" rx="0"></rect><rect x="136.3565909090909" y="102.4214393939394" width="3.6359090909090908" height="3.6359090909090908" rx="0"></rect><rect x="141.20446969696968" y="102.4214393939394" width="3.6359090909090908" height="3.6359090909090908" rx="0"></rect><rect x="146.05234848484847" y="102.4214393939394" width="3.6359090909090908" height="3.6359090909090908" rx="0"></rect><rect x="0.6159848484848485" y="107.26931818181819" width="3.6359090909090908" height="3.6359090909090908" rx="0"></rect><rect x="10.311742424242423" y="107.26931818181819" width="3.6359090909090908" height="3.6359090909090908" rx="0"></rect><rect x="20.0075" y="107.26931818181819" width="3.6359090909090908" height="3.6359090909090908" rx="0"></rect><rect x="29.703257575757576" y="107.26931818181819" width="3.6359090909090908" height="3.6359090909090908" rx="0"></rect><rect x="53.94265151515152" y="107.26931818181819" width="3.6359090909090908" height="3.6359090909090908" rx="0"></rect><rect x="68.48628787878789" y="107.26931818181819" width="3.6359090909090908" height="3.6359090909090908" rx="0"></rect><rect x="73.33416666666668" y="107.26931818181819" width="3.6359090909090908" height="3.6359090909090908" rx="0"></rect><rect x="83.02992424242424" y="107.26931818181819" width="3.6359090909090908" height="3.6359090909090908" rx="0"></rect><rect x="112.11719696969698" y="107.26931818181819" width="3.6359090909090908" height="3.6359090909090908" rx="0"></rect><rect x="126.66083333333333" y="107.26931818181819" width="3.6359090909090908" height="3.6359090909090908" rx="0"></rect><rect x="141.20446969696968" y="107.26931818181819" width="3.6359090909090908" height="3.6359090909090908" rx="0"></rect><rect x="146.05234848484847" y="107.26931818181819" width="3.6359090909090908" height="3.6359090909090908" rx="0"></rect><rect x="150.90022727272725" y="107.26931818181819" width="3.6359090909090908" height="3.6359090909090908" rx="0"></rect><rect x="155.74810606060603" y="107.26931818181819" width="3.6359090909090908" height="3.6359090909090908" rx="0"></rect><rect x="0.6159848484848485" y="112.11719696969698" width="3.6359090909090908" height="3.6359090909090908" rx="0"></rect><rect x="24.855378787878788" y="112.11719696969698" width="3.6359090909090908" height="3.6359090909090908" rx="0"></rect><rect x="34.55113636363637" y="112.11719696969698" width="3.6359090909090908" height="3.6359090909090908" rx="0"></rect><rect x="39.39901515151515" y="112.11719696969698" width="3.6359090909090908" height="3.6359090909090908" rx="0"></rect><rect x="44.246893939393935" y="112.11719696969698" width="3.6359090909090908" height="3.6359090909090908" rx="0"></rect><rect x="58.7905303030303" y="112.11719696969698" width="3.6359090909090908" height="3.6359090909090908" rx="0"></rect><rect x="63.638409090909086" y="112.11719696969698" width="3.6359090909090908" height="3.6359090909090908" rx="0"></rect><rect x="68.48628787878789" y="112.11719696969698" width="3.6359090909090908" height="3.6359090909090908" rx="0"></rect><rect x="73.33416666666668" y="112.11719696969698" width="3.6359090909090908" height="3.6359090909090908" rx="0"></rect><rect x="87.87780303030303" y="112.11719696969698" width="3.6359090909090908" height="3.6359090909090908" rx="0"></rect><rect x="121.81295454545455" y="112.11719696969698" width="3.6359090909090908" height="3.6359090909090908" rx="0"></rect><rect x="131.50871212121208" y="112.11719696969698" width="3.6359090909090908" height="3.6359090909090908" rx="0"></rect><rect x="136.3565909090909" y="112.11719696969698" width="3.6359090909090908" height="3.6359090909090908" rx="0"></rect><rect x="146.05234848484847" y="112.11719696969698" width="3.6359090909090908" height="3.6359090909090908" rx="0"></rect><rect x="155.74810606060603" y="112.11719696969698" width="3.6359090909090908" height="3.6359090909090908" rx="0"></rect><rect x="0.6159848484848485" y="116.96507575757576" width="3.6359090909090908" height="3.6359090909090908" rx="0"></rect><rect x="5.4638636363636355" y="116.96507575757576" width="3.6359090909090908" height="3.6359090909090908" rx="0"></rect><rect x="10.311742424242423" y="116.96507575757576" width="3.6359090909090908" height="3.6359090909090908" rx="0"></rect><rect x="29.703257575757576" y="116.96507575757576" width="3.6359090909090908" height="3.6359090909090908" rx="0"></rect><rect x="39.39901515151515" y="116.96507575757576" width="3.6359090909090908" height="3.6359090909090908" rx="0"></rect><rect x="44.246893939393935" y="116.96507575757576" width="3.6359090909090908" height="3.6359090909090908" rx="0"></rect><rect x="53.94265151515152" y="116.96507575757576" width="3.6359090909090908" height="3.6359090909090908" rx="0"></rect><rect x="63.638409090909086" y="116.96507575757576" width="3.6359090909090908" height="3.6359090909090908" rx="0"></rect><rect x="68.48628787878789" y="116.96507575757576" width="3.6359090909090908" height="3.6359090909090908" rx="0"></rect><rect x="78.18204545454546" y="116.96507575757576" width="3.6359090909090908" height="3.6359090909090908" rx="0"></rect><rect x="83.02992424242424" y="116.96507575757576" width="3.6359090909090908" height="3.6359090909090908" rx="0"></rect><rect x="92.72568181818183" y="116.96507575757576" width="3.6359090909090908" height="3.6359090909090908" rx="0"></rect><rect x="97.57356060606061" y="116.96507575757576" width="3.6359090909090908" height="3.6359090909090908" rx="0"></rect><rect x="116.96507575757576" y="116.96507575757576" width="3.6359090909090908" height="3.6359090909090908" rx="0"></rect><rect x="121.81295454545455" y="116.96507575757576" width="3.6359090909090908" height="3.6359090909090908" rx="0"></rect><rect x="126.66083333333333" y="116.96507575757576" width="3.6359090909090908" height="3.6359090909090908" rx="0"></rect><rect x="131.50871212121208" y="116.96507575757576" width="3.6359090909090908" height="3.6359090909090908" rx="0"></rect><rect x="136.3565909090909" y="116.96507575757576" width="3.6359090909090908" height="3.6359090909090908" rx="0"></rect><rect x="141.20446969696968" y="116.96507575757576" width="3.6359090909090908" height="3.6359090909090908" rx="0"></rect><rect x="155.74810606060603" y="116.96507575757576" width="3.6359090909090908" height="3.6359090909090908" rx="0"></rect><rect x="39.39901515151515" y="121.81295454545455" width="3.6359090909090908" height="3.6359090909090908" rx="0"></rect><rect x="53.94265151515152" y="121.81295454545455" width="3.6359090909090908" height="3.6359090909090908" rx="0"></rect><rect x="58.7905303030303" y="121.81295454545455" width="3.6359090909090908" height="3.6359090909090908" rx="0"></rect><rect x="63.638409090909086" y="121.81295454545455" width="3.6359090909090908" height="3.6359090909090908" rx="0"></rect><rect x="78.18204545454546" y="121.81295454545455" width="3.6359090909090908" height="3.6359090909090908" rx="0"></rect><rect x="83.02992424242424" y="121.81295454545455" width="3.6359090909090908" height="3.6359090909090908" rx="0"></rect><rect x="116.96507575757576" y="121.81295454545455" width="3.6359090909090908" height="3.6359090909090908" rx="0"></rect><rect x="136.3565909090909" y="121.81295454545455" width="3.6359090909090908" height="3.6359090909090908" rx="0"></rect><rect x="146.05234848484847" y="121.81295454545455" width="3.6359090909090908" height="3.6359090909090908" rx="0"></rect><rect x="150.90022727272725" y="121.81295454545455" width="3.6359090909090908" height="3.6359090909090908" rx="0"></rect><rect x="44.246893939393935" y="126.66083333333333" width="3.6359090909090908" height="3.6359090909090908" rx="0"></rect><rect x="53.94265151515152" y="126.66083333333333" width="3.6359090909090908" height="3.6359090909090908" rx="0"></rect><rect x="58.7905303030303" y="126.66083333333333" width="3.6359090909090908" height="3.6359090909090908" rx="0"></rect><rect x="68.48628787878789" y="126.66083333333333" width="3.6359090909090908" height="3.6359090909090908" rx="0"></rect><rect x="73.33416666666668" y="126.66083333333333" width="3.6359090909090908" height="3.6359090909090908" rx="0"></rect><rect x="78.18204545454546" y="126.66083333333333" width="3.6359090909090908" height="3.6359090909090908" rx="0"></rect><rect x="92.72568181818183" y="126.66083333333333" width="3.6359090909090908" height="3.6359090909090908" rx="0"></rect><rect x="102.4214393939394" y="126.66083333333333" width="3.6359090909090908" height="3.6359090909090908" rx="0"></rect><rect x="107.26931818181819" y="126.66083333333333" width="3.6359090909090908" height="3.6359090909090908" rx="0"></rect><rect x="112.11719696969698" y="126.66083333333333" width="3.6359090909090908" height="3.6359090909090908" rx="0"></rect><rect x="116.96507575757576" y="126.66083333333333" width="3.6359090909090908" height="3.6359090909090908" rx="0"></rect><rect x="126.66083333333333" y="126.66083333333333" width="3.6359090909090908" height="3.6359090909090908" rx="0"></rect><rect x="136.3565909090909" y="126.66083333333333" width="3.6359090909090908" height="3.6359090909090908" rx="0"></rect><rect x="146.05234848484847" y="126.66083333333333" width="3.6359090909090908" height="3.6359090909090908" rx="0"></rect><rect x="150.90022727272725" y="126.66083333333333" width="3.6359090909090908" height="3.6359090909090908" rx="0"></rect><rect x="39.39901515151515" y="131.50871212121208" width="3.6359090909090908" height="3.6359090909090908" rx="0"></rect><rect x="44.246893939393935" y="131.50871212121208" width="3.6359090909090908" height="3.6359090909090908" rx="0"></rect><rect x="49.094772727272726" y="131.50871212121208" width="3.6359090909090908" height="3.6359090909090908" rx="0"></rect><rect x="68.48628787878789" y="131.50871212121208" width="3.6359090909090908" height="3.6359090909090908" rx="0"></rect><rect x="73.33416666666668" y="131.50871212121208" width="3.6359090909090908" height="3.6359090909090908" rx="0"></rect><rect x="78.18204545454546" y="131.50871212121208" width="3.6359090909090908" height="3.6359090909090908" rx="0"></rect><rect x="112.11719696969698" y="131.50871212121208" width="3.6359090909090908" height="3.6359090909090908" rx="0"></rect><rect x="116.96507575757576" y="131.50871212121208" width="3.6359090909090908" height="3.6359090909090908" rx="0"></rect><rect x="136.3565909090909" y="131.50871212121208" width="3.6359090909090908" height="3.6359090909090908" rx="0"></rect><rect x="141.20446969696968" y="131.50871212121208" width="3.6359090909090908" height="3.6359090909090908" rx="0"></rect><rect x="146.05234848484847" y="131.50871212121208" width="3.6359090909090908" height="3.6359090909090908" rx="0"></rect><rect x="155.74810606060603" y="131.50871212121208" width="3.6359090909090908" height="3.6359090909090908" rx="0"></rect><rect x="39.39901515151515" y="136.3565909090909" width="3.6359090909090908" height="3.6359090909090908" rx="0"></rect><rect x="49.094772727272726" y="136.3565909090909" width="3.6359090909090908" height="3.6359090909090908" rx="0"></rect><rect x="53.94265151515152" y="136.3565909090909" width="3.6359090909090908" height="3.6359090909090908" rx="0"></rect><rect x="63.638409090909086" y="136.3565909090909" width="3.6359090909090908" height="3.6359090909090908" rx="0"></rect><rect x="68.48628787878789" y="136.3565909090909" width="3.6359090909090908" height="3.6359090909090908" rx="0"></rect><rect x="73.33416666666668" y="136.3565909090909" width="3.6359090909090908" height="3.6359090909090908" rx="0"></rect><rect x="87.87780303030303" y="136.3565909090909" width="3.6359090909090908" height="3.6359090909090908" rx="0"></rect><rect x="92.72568181818183" y="136.3565909090909" width="3.6359090909090908" height="3.6359090909090908" rx="0"></rect><rect x="97.57356060606061" y="136.3565909090909" width="3.6359090909090908" height="3.6359090909090908" rx="0"></rect><rect x="102.4214393939394" y="136.3565909090909" width="3.6359090909090908" height="3.6359090909090908" rx="0"></rect><rect x="112.11719696969698" y="136.3565909090909" width="3.6359090909090908" height="3.6359090909090908" rx="0"></rect><rect x="116.96507575757576" y="136.3565909090909" width="3.6359090909090908" height="3.6359090909090908" rx="0"></rect><rect x="121.81295454545455" y="136.3565909090909" width="3.6359090909090908" height="3.6359090909090908" rx="0"></rect><rect x="126.66083333333333" y="136.3565909090909" width="3.6359090909090908" height="3.6359090909090908" rx="0"></rect><rect x="131.50871212121208" y="136.3565909090909" width="3.6359090909090908" height="3.6359090909090908" rx="0"></rect><rect x="136.3565909090909" y="136.3565909090909" width="3.6359090909090908" height="3.6359090909090908" rx="0"></rect><rect x="150.90022727272725" y="136.3565909090909" width="3.6359090909090908" height="3.6359090909090908" rx="0"></rect><rect x="39.39901515151515" y="141.20446969696968" width="3.6359090909090908" height="3.6359090909090908" rx="0"></rect><rect x="53.94265151515152" y="141.20446969696968" width="3.6359090909090908" height="3.6359090909090908" rx="0"></rect><rect x="68.48628787878789" y="141.20446969696968" width="3.6359090909090908" height="3.6359090909090908" rx="0"></rect><rect x="87.87780303030303" y="141.20446969696968" width="3.6359090909090908" height="3.6359090909090908" rx="0"></rect><rect x="97.57356060606061" y="141.20446969696968" width="3.6359090909090908" height="3.6359090909090908" rx="0"></rect><rect x="112.11719696969698" y="141.20446969696968" width="3.6359090909090908" height="3.6359090909090908" rx="0"></rect><rect x="116.96507575757576" y="141.20446969696968" width="3.6359090909090908" height="3.6359090909090908" rx="0"></rect><rect x="121.81295454545455" y="141.20446969696968" width="3.6359090909090908" height="3.6359090909090908" rx="0"></rect><rect x="131.50871212121208" y="141.20446969696968" width="3.6359090909090908" height="3.6359090909090908" rx="0"></rect><rect x="141.20446969696968" y="141.20446969696968" width="3.6359090909090908" height="3.6359090909090908" rx="0"></rect><rect x="155.74810606060603" y="141.20446969696968" width="3.6359090909090908" height="3.6359090909090908" rx="0"></rect><rect x="44.246893939393935" y="146.05234848484847" width="3.6359090909090908" height="3.6359090909090908" rx="0"></rect><rect x="49.094772727272726" y="146.05234848484847" width="3.6359090909090908" height="3.6359090909090908" rx="0"></rect><rect x="58.7905303030303" y="146.05234848484847" width="3.6359090909090908" height="3.6359090909090908" rx="0"></rect><rect x="87.87780303030303" y="146.05234848484847" width="3.6359090909090908" height="3.6359090909090908" rx="0"></rect><rect x="97.57356060606061" y="146.05234848484847" width="3.6359090909090908" height="3.6359090909090908" rx="0"></rect><rect x="102.4214393939394" y="146.05234848484847" width="3.6359090909090908" height="3.6359090909090908" rx="0"></rect><rect x="116.96507575757576" y="146.05234848484847" width="3.6359090909090908" height="3.6359090909090908" rx="0"></rect><rect x="131.50871212121208" y="146.05234848484847" width="3.6359090909090908" height="3.6359090909090908" rx="0"></rect><rect x="136.3565909090909" y="146.05234848484847" width="3.6359090909090908" height="3.6359090909090908" rx="0"></rect><rect x="141.20446969696968" y="146.05234848484847" width="3.6359090909090908" height="3.6359090909090908" rx="0"></rect><rect x="146.05234848484847" y="146.05234848484847" width="3.6359090909090908" height="3.6359090909090908" rx="0"></rect><rect x="150.90022727272725" y="146.05234848484847" width="3.6359090909090908" height="3.6359090909090908" rx="0"></rect><rect x="155.74810606060603" y="146.05234848484847" width="3.6359090909090908" height="3.6359090909090908" rx="0"></rect><rect x="39.39901515151515" y="150.90022727272725" width="3.6359090909090908" height="3.6359090909090908" rx="0"></rect><rect x="44.246893939393935" y="150.90022727272725" width="3.6359090909090908" height="3.6359090909090908" rx="0"></rect><rect x="49.094772727272726" y="150.90022727272725" width="3.6359090909090908" height="3.6359090909090908" rx="0"></rect><rect x="58.7905303030303" y="150.90022727272725" width="3.6359090909090908" height="3.6359090909090908" rx="0"></rect><rect x="68.48628787878789" y="150.90022727272725" width="3.6359090909090908" height="3.6359090909090908" rx="0"></rect><rect x="87.87780303030303" y="150.90022727272725" width="3.6359090909090908" height="3.6359090909090908" rx="0"></rect><rect x="107.26931818181819" y="150.90022727272725" width="3.6359090909090908" height="3.6359090909090908" rx="0"></rect><rect x="131.50871212121208" y="150.90022727272725" width="3.6359090909090908" height="3.6359090909090908" rx="0"></rect><rect x="136.3565909090909" y="150.90022727272725" width="3.6359090909090908" height="3.6359090909090908" rx="0"></rect><rect x="141.20446969696968" y="150.90022727272725" width="3.6359090909090908" height="3.6359090909090908" rx="0"></rect><rect x="146.05234848484847" y="150.90022727272725" width="3.6359090909090908" height="3.6359090909090908" rx="0"></rect><rect x="150.90022727272725" y="150.90022727272725" width="3.6359090909090908" height="3.6359090909090908" rx="0"></rect><rect x="155.74810606060603" y="150.90022727272725" width="3.6359090909090908" height="3.6359090909090908" rx="0"></rect><rect x="53.94265151515152" y="155.74810606060603" width="3.6359090909090908" height="3.6359090909090908" rx="0"></rect><rect x="58.7905303030303" y="155.74810606060603" width="3.6359090909090908" height="3.6359090909090908" rx="0"></rect><rect x="63.638409090909086" y="155.74810606060603" width="3.6359090909090908" height="3.6359090909090908" rx="0"></rect><rect x="68.48628787878789" y="155.74810606060603" width="3.6359090909090908" height="3.6359090909090908" rx="0"></rect><rect x="78.18204545454546" y="155.74810606060603" width="3.6359090909090908" height="3.6359090909090908" rx="0"></rect><rect x="87.87780303030303" y="155.74810606060603" width="3.6359090909090908" height="3.6359090909090908" rx="0"></rect><rect x="116.96507575757576" y="155.74810606060603" width="3.6359090909090908" height="3.6359090909090908" rx="0"></rect><rect x="126.66083333333333" y="155.74810606060603" width="3.6359090909090908" height="3.6359090909090908" rx="0"></rect><rect x="131.50871212121208" y="155.74810606060603" width="3.6359090909090908" height="3.6359090909090908" rx="0"></rect><rect x="136.3565909090909" y="155.74810606060603" width="3.6359090909090908" height="3.6359090909090908" rx="0"></rect><rect x="141.20446969696968" y="155.74810606060603" width="3.6359090909090908" height="3.6359090909090908" rx="0"></rect></g><g shape-rendering="geometricPrecision"><path d="M 7.2718181818181815,0.0 h 19.391515151515154 a 7.2718181818181815,7.2718181818181815 0 0 1 7.2718181818181815,7.2718181818181815 v 19.391515151515154 a 7.2718181818181815,7.2718181818181815 0 0 1 -7.2718181818181815,7.2718181818181815 h -19.391515151515154 a 7.2718181818181815,7.2718181818181815 0 0 1 -7.2718181818181815,-7.2718181818181815 v -19.391515151515154 a 7.2718181818181815,7.2718181818181815 0 0 1 7.2718181818181815,-7.2718181818181815 z M 7.2718181818181815,4.847878787878788 h 19.39151515151515 a 2.423939393939394,2.423939393939394 0 0 1 2.423939393939394,2.423939393939394 v 19.39151515151515 a 2.423939393939394,2.423939393939394 0 0 1 -2.423939393939394,2.423939393939394 h -19.39151515151515 a 2.423939393939394,2.423939393939394 0 0 1 -2.423939393939394,-2.423939393939394 v -19.39151515151515 a 2.423939393939394,2.423939393939394 0 0 1 2.423939393939394,-2.423939393939394 z" fill="#ffd600" fill-rule="evenodd"></path><path d="M 133.33666666666667,0.0 h 19.391515151515154 a 7.2718181818181815,7.2718181818181815 0 0 1 7.2718181818181815,7.2718181818181815 v 19.391515151515154 a 7.2718181818181815,7.2718181818181815 0 0 1 -7.2718181818181815,7.2718181818181815 h -19.391515151515154 a 7.2718181818181815,7.2718181818181815 0 0 1 -7.2718181818181815,-7.2718181818181815 v -19.391515151515154 a 7.2718181818181815,7.2718181818181815 0 0 1 7.2718181818181815,-7.2718181818181815 z M 133.3366666666667,4.847878787878788 h 19.39151515151515 a 2.423939393939394,2.423939393939394 0 0 1 2.423939393939394,2.423939393939394 v 19.39151515151515 a 2.423939393939394,2.423939393939394 0 0 1 -2.423939393939394,2.423939393939394 h -19.39151515151515 a 2.423939393939394,2.423939393939394 0 0 1 -2.423939393939394,-2.423939393939394 v -19.39151515151515 a 2.423939393939394,2.423939393939394 0 0 1 2.423939393939394,-2.423939393939394 z" fill="#ffd600" fill-rule="evenodd"></path><path d="M 7.2718181818181815,126.0648484848485 h 19.391515151515154 a 7.2718181818181815,7.2718181818181815 0 0 1 7.2718181818181815,7.2718181818181815 v 19.391515151515154 a 7.2718181818181815,7.2718181818181815 0 0 1 -7.2718181818181815,7.2718181818181815 h -19.391515151515154 a 7.2718181818181815,7.2718181818181815 0 0 1 -7.2718181818181815,-7.2718181818181815 v -19.391515151515154 a 7.2718181818181815,7.2718181818181815 0 0 1 7.2718181818181815,-7.2718181818181815 z M 7.2718181818181815,130.9127272727273 h 19.39151515151515 a 2.423939393939394,2.423939393939394 0 0 1 2.423939393939394,2.423939393939394 v 19.39151515151515 a 2.423939393939394,2.423939393939394 0 0 1 -2.423939393939394,2.423939393939394 h -19.39151515151515 a 2.423939393939394,2.423939393939394 0 0 1 -2.423939393939394,-2.423939393939394 v -19.39151515151515 a 2.423939393939394,2.423939393939394 0 0 1 2.423939393939394,-2.423939393939394 z" fill="#ffd600" fill-rule="evenodd"></path><rect x="9.695757575757575" y="9.695757575757575" width="14.543636363636363" height="14.543636363636363" fill="#ffd600" rx="2.423939393939394"></rect><rect x="135.76060606060605" y="9.695757575757575" width="14.543636363636363" height="14.543636363636363" fill="#ffd600" rx="2.423939393939394"></rect><rect x="9.695757575757575" y="135.76060606060605" width="14.543636363636363" height="14.543636363636363" fill="#ffd600" rx="2.423939393939394"></rect></g></g></svg>